<?xml version="1.0" encoding="utf-8"?>
<!-- Generator: Adobe Illustrator 19.0.0, SVG Export Plug-In . SVG Version: 6.00 Build 0)  -->
<svg version="1.1" xmlns="http://www.w3.org/2000/svg" xmlns:xlink="http://www.w3.org/1999/xlink" x="0px" y="0px"
	 viewBox="-787 401 167 101.6" style="enable-background:new -787 401 167 101.6;" xml:space="preserve">
<style type="text/css">
	.diaryempty-st0{fill:inherit;}
	.diaryempty-st1{fill:inherit;}
	.diaryempty-st2{fill:#D44735;}
	.diaryempty-st3{fill:inherit;}
	.diaryempty-st4{fill:inherit;stroke:#D44735;stroke-width:2.5;}
	.diaryempty-st5{fill:none;stroke:#D44735;stroke-width:2.5;stroke-linecap:round;stroke-linejoin:round;}
</style>
<g id="Layer_1">
	<path class="diaryempty-st0" d="M-627,416c3.9,0,7,3.1,7,7s-3.1,7-7,7h-40c3.9,0,7,3.1,7,7s-3.1,7-7,7h22c3.9,0,7,3.1,7,7s-3.1,7-7,7h-10.2
		c-4.9,0-8.8,3.1-8.8,7c0,2.6,2,4.9,6,7c3.9,0,7,3.1,7,7s-3.1,7-7,7h-83c-3.9,0-7-3.1-7-7s3.1-7,7-7h-39c-3.9,0-7-3.1-7-7s3.1-7,7-7
		h40c3.9,0,7-3.1,7-7s-3.1-7-7-7h-25c-3.9,0-7-3.1-7-7s3.1-7,7-7h40c-3.9,0-7-3.1-7-7s3.1-7,7-7H-627z M-627,444c3.9,0,7,3.1,7,7
		s-3.1,7-7,7s-7-3.1-7-7S-630.9,444-627,444z"/>
	<path class="diaryempty-st1" d="M-680.3,415l9.3,67.8l0.8,6.8c0.3,2.2-1.3,4.2-3.5,4.5l-58.6,7.2c-2.2,0.3-4.2-1.3-4.5-3.5l-9-73.4
		c-0.1-1.1,0.6-2.1,1.7-2.2c0,0,0,0,0,0l4.9-0.5 M-735.2,421.2l4.6-0.5L-735.2,421.2z"/>
	<path class="diaryempty-st2" d="M-679.1,414.8c-0.1-0.7-0.7-1.2-1.4-1.1s-1.2,0.7-1.1,1.4L-679.1,414.8z M-671,482.8l1.2-0.2c0,0,0,0,0,0
		L-671,482.8z M-736.7,497.8l1.2-0.2L-736.7,497.8z M-745.7,424.4l1.2-0.2L-745.7,424.4z M-743.9,422.2l-0.1-1.2L-743.9,422.2z
		 M-738.9,422.9c0.7-0.1,1.2-0.7,1.1-1.4c-0.1-0.7-0.7-1.2-1.4-1.1L-738.9,422.9z M-735.3,419.9c-0.7,0.1-1.2,0.7-1.1,1.4
		c0.1,0.7,0.7,1.2,1.4,1.1L-735.3,419.9z M-730.4,421.9c0.7-0.1,1.2-0.7,1.1-1.4c-0.1-0.7-0.7-1.2-1.4-1.1L-730.4,421.9z
		 M-681.6,415.2l9.3,67.8l2.5-0.3l-9.3-67.8L-681.6,415.2z M-672.3,483l0.8,6.8l2.5-0.3l-0.8-6.8L-672.3,483z M-671.4,489.8
		c0.2,1.5-0.9,2.9-2.4,3.1l0.3,2.5c2.9-0.4,4.9-3,4.6-5.8L-671.4,489.8z M-673.8,492.9l-58.6,7.2l0.3,2.5l58.6-7.2L-673.8,492.9z
		 M-732.4,500.1c-1.5,0.2-2.9-0.9-3.1-2.4l-2.5,0.3c0.4,2.9,3,4.9,5.9,4.6L-732.4,500.1z M-735.5,497.7l-9-73.4l-2.5,0.3l9,73.4
		L-735.5,497.7z M-744.5,424.2c-0.1-0.4,0.2-0.8,0.7-0.8l-0.3-2.5c-1.8,0.2-3,1.8-2.8,3.6L-744.5,424.2z M-743.8,423.4
		C-743.8,423.4-743.8,423.4-743.8,423.4l-0.3-2.5c0,0,0,0,0,0L-743.8,423.4z M-743.8,423.4l4.9-0.5l-0.3-2.5l-4.9,0.5L-743.8,423.4z
		 M-735,422.4l4.6-0.5l-0.3-2.5l-4.6,0.5L-735,422.4z M-730.7,419.4l-4.6,0.5l0.3,2.5l4.6-0.5L-730.7,419.4z"/>
	<path class="diaryempty-st3" d="M-682.9,419.3l8.4,61.5l0.8,6.2c0.2,2-1.2,3.8-3.1,4l-52.4,6.4c-2,0.2-3.8-1.2-4-3.2l-8.1-66.4
		c-0.1-1.1,0.6-2.1,1.7-2.2l6.5-0.8"/>
	<path class="diaryempty-st4" d="M-726.1,405c0-1.5,1.2-2.8,2.8-2.8h45.6c0.7,0,1.4,0.3,1.9,0.8l13.4,13.4c0.5,0.5,0.8,1.2,0.8,1.9V481
		c0,1.5-1.2,2.8-2.8,2.8h-59c-1.5,0-2.8-1.2-2.8-2.8V405z"/>
	<path class="diaryempty-st5" d="M-677.3,403.4V415c0,1.7,1.3,3,3,3h7.9"/>
</g>
<g id="Layer_3">
	<path class="diaryempty-st2" d="M-679.5,462.9l-28.7-28.9c-0.2-0.2-0.2-0.4-0.2-0.4l0.3-0.3c0.1-0.1,0.3,0,0.4,0.2l28.7,28.9
		c0.2,0.2,0.2,0.4,0.2,0.4l-0.3,0.3C-679.1,463.1-679.3,463.1-679.5,462.9z"/>
</g>
<g id="Layer_2">
	<path class="diaryempty-st2" d="M-694.3,464.4c0.5,0,0.9,0,1.4-0.1c0.2,0,0.3,0,0.5,0c0.2,0,0.4,0,0.5-0.1c0,0,0.1,0,0.1,0c0.1,0,0.2,0,0.3,0
		c0.4-0.1,0.7-0.1,1.1-0.2c0.2,0,0.4-0.1,0.6-0.2c0,0,0.1,0,0.1,0c0.1,0,0.2-0.1,0.3-0.1c0,0,0,0,0.1,0c0.2,0,0.5-0.1,0.7-0.2
		c0.1,0,0.2-0.1,0.3-0.1c0,0,0,0,0.1,0c0.2,0,0.4-0.1,0.5-0.2c0.2-0.1,0.4-0.2,0.7-0.3c0.1,0,0.2-0.1,0.2-0.1
		c0.3-0.1,0.5-0.3,0.8-0.4c0,0,0.1,0,0.1-0.1c0.1-0.1,0.2-0.1,0.3-0.2c0.1-0.1,0.2-0.1,0.3-0.2c0.2-0.1,0.4-0.2,0.6-0.4
		c0.2-0.1,0.4-0.3,0.6-0.4c0.2-0.2,0.4-0.3,0.6-0.5c0.3-0.3,0.6-0.5,0.9-0.8c0.1-0.1,0.2-0.2,0.3-0.2c0.1-0.1,0.3-0.3,0.4-0.4
		c0.3-0.3,0.6-0.7,0.9-1c0.1-0.2,0.3-0.3,0.4-0.5c0.1-0.1,0.2-0.2,0.2-0.3c0.2-0.3,0.4-0.6,0.6-0.9c0.1-0.1,0.1-0.2,0.2-0.3
		c0-0.1,0.1-0.1,0.1-0.2c0.2-0.3,0.4-0.6,0.5-0.9c0-0.1,0.1-0.1,0.1-0.2c0.1-0.3,0.2-0.5,0.4-0.8c0.1-0.2,0.1-0.3,0.2-0.5
		c0,0,0,0,0,0c0.1-0.2,0.2-0.5,0.3-0.7c0.1-0.2,0.1-0.4,0.2-0.6c0,0,0-0.1,0-0.1c0,0,0-0.1,0-0.1c0.1-0.2,0.1-0.4,0.1-0.6
		c0-0.1,0-0.2,0.1-0.3c0-0.1,0-0.2,0.1-0.3c0,0,0-0.1,0-0.1c0-0.1,0-0.2,0.1-0.3c0,0,0,0,0,0c0.1-0.3,0.1-0.5,0.1-0.8
		c0-0.2,0.1-0.4,0.1-0.7c0-0.1,0-0.1,0-0.2c0.1-0.5,0.1-1,0.1-1.5c0-0.4,0-0.8,0-1.2c0-0.3,0-0.6-0.1-0.9c0-0.2-0.1-0.5-0.1-0.7
		c-0.1-0.4-0.1-0.7-0.2-1.1c0-0.2-0.1-0.4-0.2-0.6c0-0.2-0.1-0.3-0.1-0.4c0-0.3-0.2-0.5-0.2-0.8c-0.1-0.2-0.2-0.5-0.3-0.7
		c-0.1-0.2-0.2-0.4-0.3-0.7c-0.1-0.2-0.2-0.3-0.2-0.5c-0.1-0.2-0.2-0.3-0.3-0.5c0-0.1-0.1-0.2-0.1-0.2c-0.2-0.4-0.5-0.8-0.7-1.2
		c-0.3-0.5-0.7-0.9-1.1-1.4c-0.2-0.3-0.5-0.6-0.8-0.9c-0.2-0.2-0.4-0.4-0.7-0.6c-0.3-0.3-0.5-0.5-0.8-0.7c-0.2-0.2-0.5-0.4-0.7-0.6
		c-0.3-0.2-0.5-0.4-0.8-0.5c-0.2-0.2-0.5-0.3-0.8-0.5c-0.2-0.1-0.4-0.2-0.6-0.4c-0.3-0.1-0.5-0.3-0.8-0.4c0,0,0,0,0,0
		c-0.3-0.1-0.6-0.3-0.9-0.4c-0.2-0.1-0.4-0.2-0.7-0.2c-0.1,0-0.2,0-0.2-0.1c0,0,0,0-0.1,0c-0.2-0.1-0.4-0.1-0.5-0.2c0,0-0.1,0-0.1,0
		c-0.3-0.1-0.6-0.2-0.9-0.2c-0.2-0.1-0.5-0.1-0.7-0.1c0,0-0.1,0-0.1,0c-0.1,0-0.2-0.1-0.4-0.1c0,0-0.1,0-0.1,0
		c-0.3-0.1-0.5-0.1-0.8-0.2c-0.3-0.1-0.5-0.3-0.7-0.5c0,0,0,0,0,0c0-0.2,0-0.4,0.2-0.6c0.2-0.2,0.4-0.3,0.7-0.3c0.1,0,0.2,0,0.2,0
		c0,0,0.1,0,0.1,0c0.2,0,0.4,0,0.6,0.1c0.2,0,0.4,0.1,0.5,0.1c0.2,0,0.4,0,0.5,0.1c0,0,0.1,0,0.1,0c0.1,0,0.2,0,0.3,0.1
		c0.1,0,0.1,0,0.2,0c0.1,0,0.2,0,0.3,0.1c0,0,0,0,0,0c0.2,0,0.4,0.1,0.6,0.2c0.1,0,0.1,0,0.2,0c0.2,0.1,0.4,0.1,0.5,0.2
		c0,0,0.1,0,0.1,0.1c0,0,0.1,0,0.1,0c0.1,0,0.2,0.1,0.3,0.1c0.1,0,0.1,0.1,0.2,0.1c0.2,0.1,0.3,0.1,0.5,0.2c0.1,0,0.2,0.1,0.3,0.1
		c0.2,0.1,0.3,0.1,0.5,0.2c0.1,0,0.1,0,0.2,0.1c0.1,0.1,0.2,0.1,0.3,0.2c0.3,0.1,0.5,0.3,0.8,0.4c0.1,0,0.2,0.1,0.2,0.1
		c0.2,0.1,0.5,0.3,0.7,0.4c0.2,0.1,0.4,0.2,0.5,0.4c0.1,0.1,0.2,0.1,0.3,0.2c0.1,0.1,0.2,0.2,0.3,0.2c0.2,0.2,0.5,0.4,0.7,0.5
		c0.2,0.2,0.4,0.4,0.7,0.6c0.2,0.2,0.4,0.4,0.6,0.6c0.2,0.2,0.4,0.4,0.6,0.6c0,0.1,0.1,0.1,0.2,0.2c0.2,0.2,0.4,0.4,0.6,0.7
		c0.2,0.3,0.4,0.5,0.6,0.8c0.2,0.2,0.3,0.5,0.5,0.7c0.1,0.1,0.2,0.3,0.2,0.4c0.1,0.1,0.2,0.3,0.3,0.4c0.1,0.1,0.1,0.2,0.2,0.3
		c0.1,0.3,0.3,0.5,0.4,0.8c0.1,0.2,0.2,0.3,0.2,0.5c0.2,0.4,0.3,0.8,0.5,1.2c0.1,0.3,0.2,0.5,0.3,0.8c0.1,0.2,0.1,0.3,0.1,0.5
		c0.1,0.2,0.1,0.4,0.2,0.6c0.1,0.2,0.1,0.4,0.2,0.6c0.1,0.4,0.2,0.8,0.2,1.1c0,0.1,0,0.1,0,0.2c0,0.1,0,0.1,0,0.2
		c0.1,0.4,0.1,0.9,0.1,1.4c0,0.3,0,0.6,0,0.8c0,0.2,0,0.4,0,0.5c0,0.3,0,0.6,0,0.9c0,0.2,0,0.5-0.1,0.7c0,0,0,0,0,0
		c0,0.4-0.1,0.7-0.1,1.1c0,0.1,0,0.1,0,0.2c0,0.1,0,0.2-0.1,0.3c0,0.1,0,0.1,0,0.2c0,0.1-0.1,0.2-0.1,0.3c0,0.1,0,0.1,0,0.2
		c0,0.1,0,0.1-0.1,0.2c0,0,0,0,0,0c-0.1,0.2-0.1,0.4-0.2,0.7c0,0,0,0.1,0,0.1c0,0.2-0.1,0.4-0.2,0.6c0,0.2-0.1,0.3-0.2,0.5
		c0,0,0,0,0,0c-0.1,0.2-0.1,0.4-0.2,0.5c-0.1,0.2-0.2,0.4-0.3,0.6c-0.1,0.2-0.2,0.5-0.3,0.7c0,0-0.1,0.1-0.1,0.1
		c-0.1,0.3-0.3,0.6-0.5,0.9c-0.1,0.1-0.1,0.2-0.2,0.3c-0.2,0.3-0.4,0.7-0.6,1c-0.1,0.2-0.3,0.4-0.4,0.6c-0.3,0.3-0.5,0.7-0.8,1
		c-0.2,0.3-0.4,0.5-0.6,0.7c-0.2,0.2-0.4,0.4-0.6,0.6c-0.2,0.2-0.4,0.4-0.6,0.6c-0.2,0.2-0.5,0.4-0.7,0.6c-0.4,0.3-0.8,0.6-1.3,0.9
		c-0.2,0.2-0.5,0.3-0.7,0.5c-0.1,0-0.2,0.1-0.3,0.2c-0.2,0.1-0.4,0.2-0.7,0.4c-0.3,0.2-0.6,0.3-1,0.5c-0.1,0-0.2,0.1-0.3,0.1
		c-0.3,0.1-0.5,0.2-0.8,0.3c-0.3,0.1-0.5,0.2-0.8,0.3c-0.3,0.1-0.5,0.2-0.8,0.2c-0.2,0-0.3,0.1-0.5,0.1c-0.2,0.1-0.5,0.1-0.7,0.2
		c-0.2,0-0.4,0.1-0.6,0.1c-0.3,0-0.5,0.1-0.8,0.1c-0.1,0-0.1,0-0.2,0c-0.2,0-0.4,0.1-0.6,0.1c-0.3,0-0.5,0-0.8,0.1
		c-0.2,0-0.4,0-0.6,0c0,0-0.1,0-0.1,0c0,0-0.1,0-0.1,0c-0.1,0-0.2,0-0.3,0c0,0-0.1,0-0.1,0c-0.1,0-0.3,0-0.4,0c-0.2,0-0.4,0-0.6,0
		c-0.1,0-0.2,0-0.3,0c-0.1,0-0.2,0-0.2,0c0,0-0.1,0-0.1,0c-0.4,0-0.8-0.1-1.2-0.2c-0.2,0-0.3,0-0.5-0.1c-0.2,0-0.4-0.1-0.6-0.1
		c-0.1,0-0.3-0.1-0.4-0.1c0,0-0.1,0-0.1,0c-0.1-0.1-0.2-0.1-0.4-0.1c0,0,0,0,0,0c-0.2-0.1-0.4-0.1-0.6-0.2c-0.1,0-0.1,0-0.2-0.1
		c-0.2-0.1-0.4-0.1-0.6-0.2c0,0,0,0-0.1,0c-0.1-0.1-0.3-0.1-0.5-0.2c0,0-0.1,0-0.1,0c-0.3-0.1-0.5-0.2-0.8-0.3
		c-0.1,0-0.1-0.1-0.2-0.1c-0.2-0.1-0.5-0.2-0.7-0.3c-0.2-0.1-0.4-0.2-0.6-0.3c-0.1-0.1-0.2-0.1-0.4-0.2c-0.2-0.1-0.4-0.3-0.6-0.4
		c-0.2-0.2-0.5-0.3-0.7-0.5c-0.1-0.1-0.2-0.2-0.3-0.2c-0.2-0.2-0.5-0.4-0.7-0.5c-0.3-0.3-0.6-0.5-0.9-0.8c-0.3-0.3-0.6-0.5-0.8-0.8
		c-0.2-0.3-0.5-0.5-0.7-0.8c-0.2-0.3-0.4-0.5-0.6-0.8c-0.2-0.3-0.4-0.6-0.6-0.9c-0.2-0.3-0.4-0.6-0.5-0.8c-0.1-0.2-0.3-0.5-0.4-0.7
		c-0.1-0.2-0.2-0.3-0.3-0.5c-0.1-0.2-0.2-0.4-0.3-0.5c0-0.1-0.1-0.2-0.1-0.3c-0.1-0.2-0.2-0.4-0.3-0.7c-0.1-0.3-0.2-0.6-0.3-0.9
		c0,0,0,0,0,0c-0.2-0.4-0.3-0.8-0.4-1.3c-0.1-0.5-0.2-1.1-0.3-1.6c-0.1-0.3-0.1-0.7-0.1-1c0-0.3-0.1-0.7-0.1-1c0-0.2,0-0.5,0-0.7
		c0,0,0-0.1,0-0.1c0,0,0-0.1,0-0.1c0-0.2,0-0.5,0-0.7c0-0.2,0-0.4,0-0.7c0-0.3,0-0.5,0.1-0.8c0-0.1,0-0.1,0-0.2c0,0,0-0.1,0-0.1
		c0-0.2,0.1-0.3,0.2-0.5c0.1-0.2,0.2-0.3,0.4-0.5c0,0,0,0,0,0c0.2,0,0.4-0.1,0.6,0.1c0.2,0.1,0.3,0.3,0.3,0.5c0,0.1,0,0.2,0.1,0.2
		c0,0,0,0.1,0,0.1c0,0.2,0,0.4,0,0.5c0,0,0,0,0,0c0,0.5-0.1,1-0.1,1.5c0,0.5,0,1,0,1.5c0,0.3,0,0.6,0.1,0.9c0,0.2,0.1,0.4,0.1,0.6
		c0,0.3,0.1,0.6,0.2,0.9c0,0.2,0.1,0.4,0.1,0.6c0,0.1,0.1,0.2,0.1,0.3c0,0.1,0,0.1,0,0.2c0,0.1,0,0.1,0.1,0.2c0,0.1,0.1,0.2,0.1,0.3
		c0,0,0,0,0,0.1c0.1,0.2,0.1,0.4,0.2,0.6c0.1,0.2,0.2,0.5,0.3,0.7c0.1,0.2,0.2,0.5,0.3,0.7c0.1,0.2,0.2,0.3,0.2,0.5
		c0.1,0.3,0.3,0.5,0.4,0.7c0.2,0.4,0.4,0.8,0.7,1.1c0.4,0.6,0.8,1.2,1.3,1.7c0.3,0.4,0.7,0.8,1.1,1.1c0.3,0.3,0.6,0.5,0.9,0.8
		c0.3,0.2,0.6,0.5,0.9,0.7c0.2,0.2,0.5,0.3,0.7,0.5c0.2,0.2,0.5,0.3,0.8,0.5c0.2,0.1,0.4,0.2,0.6,0.3c0.4,0.2,0.8,0.4,1.2,0.6
		c0.2,0.1,0.4,0.2,0.6,0.2c0.2,0.1,0.4,0.2,0.7,0.2c0.1,0,0.1,0,0.2,0.1c0.1,0,0.1,0,0.2,0.1c0,0,0.1,0,0.1,0c0.1,0,0.3,0.1,0.4,0.1
		c0.2,0.1,0.4,0.1,0.6,0.2c0.2,0.1,0.5,0.1,0.7,0.2c0.1,0,0.2,0,0.3,0c0.1,0,0.1,0,0.2,0c0.1,0,0.3,0.1,0.4,0.1c0,0,0.1,0,0.1,0
		c0.3,0.1,0.5,0.1,0.8,0.1c0,0,0.1,0,0.1,0c0.3,0,0.6,0.1,0.9,0.1C-694.6,464.4-694.5,464.4-694.3,464.4z"/>
	<path class="diaryempty-st2" d="M-694.4,446.5c1.2,0,2.3,0,3.5,0c0.2,0,0.3,0,0.5,0c0.1,0,0.2,0,0.3,0.1c0.2,0.1,0.3,0.2,0.3,0.4
		c0.1,0.2,0.1,0.5,0,0.7c0,0.1-0.1,0.2-0.3,0.3c-0.1,0.1-0.2,0.1-0.3,0.1c-0.2,0-0.3,0-0.5,0c-2.3,0-4.7,0-7,0c-0.2,0-0.3,0-0.5,0
		c-0.1,0-0.2,0-0.3-0.1c-0.2-0.1-0.3-0.2-0.3-0.4c-0.1-0.2-0.1-0.5,0-0.7c0.1-0.2,0.1-0.3,0.3-0.3c0.1-0.1,0.2-0.1,0.3-0.1
		c0.2,0,0.3,0,0.5,0C-696.7,446.5-695.6,446.5-694.4,446.5z"/>
	<path class="diaryempty-st2" d="M-689,447.3c0-1,0-1.9,0-2.9c0-0.2,0-0.4,0-0.5c0-0.2,0.1-0.4,0.2-0.5c0,0,0.1,0,0.1-0.1
		c0.2-0.1,0.5-0.1,0.8-0.1c0.1,0,0.1,0,0.2,0c0.2,0.1,0.3,0.2,0.3,0.3c0,0.1,0.1,0.2,0.1,0.4		c0,0.1,0,0.3,0,0.4c0,1.9,0,3.9,0,5.8
		c0,0.1,0,0.3,0,0.4c0,0.1,0,0.2-0.1,0.3c-0.1,0.2-0.2,0.3-0.3,0.3c-0.3,0.1-0.6,0.1-0.9,0c-0.1,0-0.2-0.1-0.3-0.2
		c-0.1-0.1-0.1-0.2-0.1-0.3c0-0.2,0-0.3,0-0.5C-689,449.2-689,448.2-689,447.3z"/>
	<path class="diaryempty-st2" d="M-699.8,447.3c0,1,0,1.9,0,2.9c0,0.2,0,0.3,0,0.5c0,0.1,0,0.2-0.1,0.3c-0.1,0.1-0.2,0.2-0.3,0.3
		c-0.3,0.1-0.6,0.1-0.8,0c-0.2-0.1-0.3-0.2-0.3-0.3c0-0.1-0.1-0.2-0.1-0.4c0-0.1,0-0.3,0-0.4c0-1.9,0-3.9,0-5.8c0-0.1,0-0.3,0-0.4
		c0-0.1,0-0.2,0.1-0.3c0.1-0.2,0.2-0.3,0.4-0.4c0.3-0.1,0.6-0.1,0.8,0c0.1,0,0.2,0.1,0.3,0.3c0.1,0.1,0.1,0.2,0.1,0.3
		c0,0.2,0,0.3,0,0.5C-699.8,445.4-699.8,446.3-699.8,447.3z"/>
	<path class="diaryempty-st2" d="M-702.3,447.3c0,0.4,0,0.8,0,1.2c0,0.1,0,0.3,0,0.4c0,0.1,0,0.2-0.1,0.3c-0.1,0.1-0.2,0.2-0.3,0.2
		c-0.3,0.1-0.6,0.1-0.9,0c-0.2-0.1-0.3-0.2-0.3-0.3c-0.1-0.1-0.1-0.3-0.1-0.4c0-0.1,0-0.3,0-0.4c0-0.7,0-1.4,0-2.2
		c0-0.1,0-0.3,0-0.4c0-0.1,0-0.2,0.1-0.4c0.1-0.2,0.2-0.3,0.4-0.4c0.3-0.1,0.5-0.1,0.8,0c0.2,0.1,0.4,0.2,0.4,0.5c0,0,0,0.1,0,0.2
		c0,0.1,0,0.2,0,0.4C-702.3,446.5-702.3,446.9-702.3,447.3z"/>
	<path class="diaryempty-st2" d="M-686.5,447.3c0-0.4,0-0.8,0-1.2c0-0.1,0-0.3,0-0.4c0-0.1,0-0.2,0.1-0.3c0.1-0.1,0.1-0.2,0.2-0.2
		c0.1-0.1,0.2-0.1,0.4-0.1c0.2,0,0.4,0,0.6,0.1c0.1,0.1,0.3,0.2,0.3,0.3c0,0.1,0.1,0.3,0.1,0.4c0,0.1,0,0.2,0,0.3c0,0.7,0,1.5,0,2.2
		c0,0.1,0,0.2,0,0.3c0,0.1,0,0.3-0.1,0.4c-0.1,0.1-0.2,0.2-0.3,0.3c-0.3,0.1-0.6,0.1-0.9,0c-0.2-0.1-0.4-0.2-0.4-0.5
		c0,0,0-0.1,0-0.1c0-0.1,0-0.3,0-0.4C-686.5,448.1-686.5,447.7-686.5,447.3z"/>
</g>
</svg>
