<svg viewBox="0 0 512 512" xmlns="http://www.w3.org/2000/svg" class="ionicon">
    <title>History</title>
    <path
        d="M32.6605 182.858C27.6117 175.606 17.6398 173.82 10.3876 178.869C3.13541 183.918 1.34924 193.89 6.39808 201.142L32.6605 182.858ZM64.3559 256.389L51.2247 265.531C53.6669 269.039 57.4113 271.424 61.6229 272.154C65.8346 272.884 70.1632 271.899 73.6438 269.417L64.3559 256.389ZM137.528 223.874C144.723 218.745 146.398 208.753 141.269 201.558C136.139 194.363 126.148 192.688 118.952 197.818L137.528 223.874ZM272 175C272 166.163 264.837 159 256 159C247.163 159 240 166.163 240 175H272ZM256 272H240C240 280.837 247.163 288 256 288V272ZM321 288C329.837 288 337 280.837 337 272C337 263.163 329.837 256 321 256V288ZM109.225 354.3C103.867 347.273 93.8277 345.918 86.8002 351.276C79.7726 356.633 78.4184 366.672 83.7755 373.7L109.225 354.3ZM48 256C48 264.836 55.1634 272 64 272C72.8366 272 80 264.836 80 256H48ZM6.39808 201.142L51.2247 265.531L77.4871 247.248L32.6605 182.858L6.39808 201.142ZM73.6438 269.417L137.528 223.874L118.952 197.818L55.068 243.361L73.6438 269.417ZM240 175V272H272V175H240ZM256 288H321V256H256V288ZM83.7755 373.7C133.245 438.596 192.415 464 256 464V432C202.585 432 152.755 411.404 109.225 354.3L83.7755 373.7ZM256 464C370.837 464 464 370.836 464 256H432C432 353.163 353.163 432 256 432V464ZM464 256C464 141.163 370.837 48 256 48V80C353.163 80 432 158.837 432 256H464ZM256 48C141.245 48 48 139.582 48 256H80C80 157.418 158.755 80 256 80V48Z"
        fill="currentColor" />
</svg>