<?xml version="1.0" encoding="utf-8"?>
<!-- Generator: Adobe Illustrator 19.0.0, SVG Export Plug-In . SVG Version: 6.00 Build 0)  -->
<svg version="1.1" id="Layer_1" xmlns="http://www.w3.org/2000/svg" xmlns:xlink="http://www.w3.org/1999/xlink" x="0px" y="0px"
	 viewBox="-161.3 238.7 726.7 726.7" style="enable-background:new -161.3 238.7 726.7 726.7;" xml:space="preserve">
<style type="text/css">
	.median-st0{fill:none;stroke:currentColor;stroke-width:60;stroke-linecap:round;stroke-linejoin:round;}
	.median-st1{fill:none;stroke:#D44735;stroke-width:60;stroke-linecap:round;stroke-linejoin:round;stroke-dasharray:30,100;}
	.median-st2{fill:#D44735;}
</style>
<path class="median-st0" d="M-131.3,268.7v666.7h666.7"/>
<line class="median-st1" x1="-42.6" y1="571" x2="572.4" y2="571"/>
<path class="median-st2" d="M267.4,749.6c30.8,81.2,70.9,141.9,136.4,141.9c74.8,0,113.8-64.1,130.5-102.5c6.6-15.1-0.6-32.6-15.7-39h0
	c-14.3-6-30.8,0-37.8,13.8c-16.3,32.3-44.1,53.7-75.4,56.6c-1.1,0.1-2.1,0.1-3.2,0.1c-60.6-2-92.8-119.3-126.9-243.3
	c-10-36.5-20.4-74.1-32-110.2c-0.2-0.7-0.4-1.4-0.6-2.1l-2.8-11.9c-0.1-0.6-0.3-1.2-0.5-1.8l-5.6-18.3c-0.4-1.2-0.8-2.5-1.4-3.6
	L216.8,395c-34.4-81-80.8-141.9-154.1-141.9c-74.8,0-113.8,64.1-130.5,102.5c-6.6,15.1,0.6,32.6,15.7,39l0,0
	c14.3,6,30.8,0,37.8-13.8c16.3-32.3,44.1-53.7,75.5-56.6c1-0.1,2.1-0.1,3.1-0.1c81.9,1.7,120.2,141.2,157.3,276.1
	c7.2,26.3,14.5,52.8,22.2,78.5"/>
</svg>
