<?xml version="1.0" encoding="utf-8"?>
<!-- Generator: Adobe Illustrator 19.0.0, SVG Export Plug-In . SVG Version: 6.00 Build 0)  -->
<svg version="1.1" id="Capa_1" xmlns="http://www.w3.org/2000/svg" xmlns:xlink="http://www.w3.org/1999/xlink" x="0px" y="0px"
	 viewBox="-197.4 213.2 612.8 895" style="enable-background:new -197.4 213.2 612.8 895;" xml:space="preserve">
<style type="text/css">
	.st0{stroke: currentColor;stroke-width:40;stroke-miterlimit:10;}
</style>


<g>
	<g id="XMLID_1_">
		<g>
			<path d="M321.9,213.2c7.4,0,14.5,3,19.7,8.2s8.2,12.4,8.2,19.7v167.6c0,15.5-12.6,28.1-28.1,28.1h-37.4v93l81.4,65.2
				c31.6,25.2,49.7,62.9,49.7,103.5v48c0,7.6-3.1,14.7-8.2,19.7c-5.1,5.1-12.1,8.2-19.7,8.2H137v305.9c0,7.6-3.1,14.7-8.2,19.7
				c-5.1,5.1-12.1,8.2-19.7,8.2c-15.5,0-28.1-12.6-28-28V774.6h-250.5c-15.5,0-28.1-12.6-28-28v-48c0-35.3,13.8-68.8,38.9-93.8
				c3.3-3.3,7-6.6,10.8-9.7l81.4-65.2v-93h-37.6c-15.5,0-28.1-12.6-28.1-28.1V241.2c0-15.5,12.6-28,28-28H321.9z M294,380.7V269.2
				H-76v111.5h37.6c15.5,0,28,12.6,28,28v134.4c0,8.5-3.8,16.5-10.5,21.8l-91.9,73.6c-18.1,14.7-28.7,36.6-28.7,59.9l-0.1,20h501.1
				v-20.1c0.1-23.4-10.4-45.2-28.7-59.9l-91.7-73.5c-6.7-5.3-10.5-13.3-10.5-21.8l-0.1-134.5c0.1-14.9,13.3-28,28.1-28.1L294,380.7z
				"/>
			<path class="st0" d="M294,269.2v111.5l-37.5-0.1c-14.8,0-27.9,13.2-28.1,28.1l0.1,134.5c0,8.5,3.8,16.5,10.5,21.8l91.7,73.5
				c18.3,14.7,28.9,36.5,28.7,59.9v20.1h-500.9l0.1-20c0-23.3,10.6-45.2,28.7-59.9l91.9-73.6c6.7-5.3,10.5-13.3,10.5-21.8V408.8
				c0-15.5-12.6-28-28-28H-76V269.3L294,269.2z"/>
		</g>
	</g>
</g>
<polygon points="150,469.3 150,469.3 150,469.3 "/>
</svg>
