<?xml version="1.0" encoding="utf-8"?>
<!-- Generator: Adobe Illustrator 19.0.0, SVG Export Plug-In . SVG Version: 6.00 Build 0)  -->
<svg version="1.1" id="Capa_1" xmlns="http://www.w3.org/2000/svg" xmlns:xlink="http://www.w3.org/1999/xlink" x="0px" y="0px"
	 viewBox="-5.4 159.8 612.9 895.2" style="enable-background:new -5.4 159.8 612.9 895.2;" xml:space="preserve">
<g>
	<g>
		<g>
			<path d="M88.1,159.8c-15.5,0-28,12.6-28,28l0,167.6c0,15.5,12.6,28,28,28h37.6v93l-81.4,65.2c-3.8,3.1-7.5,6.3-10.8,9.7
				c-25,25-38.9,58.5-38.9,93.8l0,48c0,15.5,12.6,28,28,28h250.5V1027c0,15.5,12.6,28,28,28c7.6,0,14.7-3.1,19.7-8.2
				c5.1-5.1,8.2-12.1,8.2-19.7V721.2h250.5c7.6,0,14.7-3.1,19.7-8.2c5.1-5.1,8.2-12.1,8.2-19.7v-48c0-40.6-18.1-78.4-49.7-103.5
				l-81.4-65.2v-93h37.4c15.5,0,28-12.6,28-28V187.9c0-7.4-3-14.5-8.2-19.7c-5.2-5.2-12.3-8.2-19.7-8.2L88.1,159.8z M486,327.4
				l-37.5-0.1c-14.8,0-27.9,13.2-28,28l0.1,134.5c0,8.5,3.8,16.5,10.5,21.8l91.8,73.5c18.4,14.7,28.9,36.5,28.7,59.9v20.1H50.5
				l0.1-20c0-23.3,10.6-45.2,28.7-59.9l91.9-73.6c6.7-5.3,10.5-13.3,10.5-21.8l0-134.3c0-15.5-12.6-28-28-28H116V215.9l370,0V327.4z
				"/>
		</g>
	</g>
</g>
</svg>
