<?xml version="1.0" encoding="utf-8"?>
<!-- Generator: Adobe Illustrator 19.0.0, SVG Export Plug-In . SVG Version: 6.00 Build 0)  -->
<svg version="1.1" id="Layer_1" xmlns="http://www.w3.org/2000/svg" xmlns:xlink="http://www.w3.org/1999/xlink" x="0px" y="0px"
	 viewBox="0 0 678.9 595.6" style="enable-background:new 0 0 678.9 595.6;" xml:space="preserve">
<style type="text/css">
	.st0{stroke:inherit;stroke-miterlimit:10;}
</style>
<path id="XMLID_1_" class="st0" d="M455.1,595.1H15.5c-8.3,0-15-6.8-15-15v-65c0-8.3,6.8-15,15-15h439.6c8.3,0,15,6.8,15,15v65
	C470.1,588.3,463.4,595.1,455.1,595.1z"/>
<path id="XMLID_5_" class="st0" d="M432.6,476.1H38c-8.3,0-15-6.8-15-15v-65c0-8.3,6.8-15,15-15h394.6c8.3,0,15,6.8,15,15v65
	C447.6,469.3,440.9,476.1,432.6,476.1z"/>
<path id="XMLID_7_" class="st0" d="M409,357.7H61.6c-8.3,0-15-6.8-15-15v-65c0-8.3,6.8-15,15-15H409c8.3,0,15,6.8,15,15v65
	C424,350.9,417.2,357.7,409,357.7z"/>
<path id="XMLID_8_" class="st0" d="M592.1,571.4L392.4,179.8c-3.7-7.3-0.8-16.4,6.5-20.2l57.9-29.5c7.3-3.7,16.4-0.8,20.2,6.5
	l199.7,391.6c3.7,7.3,0.8,16.4-6.5,20.2L612.3,578C604.9,581.7,595.9,578.8,592.1,571.4z"/>
<g id="XMLID_3_">
	<path id="XMLID_4_" d="M228.9,159c0.1-14.2,1.7-24.4,4.9-30.5c3.2-6.1,10.3-13.8,21.2-23.1c7.8-7.6,13.9-14.8,18.5-21.7
		c4.6-6.9,6.9-14.6,6.9-22.9c0-9.7-2.6-17.1-7.8-22.5c-5.2-5.3-12.7-8-22.3-8c-8.3,0-15.3,2.3-21.1,6.8c-5.8,4.5-8.7,11.2-8.7,20.1
		h-34.9l-0.4-0.9c-0.3-17.7,5.6-31.5,17.8-41.4C215.2,5,230.9,0,250.2,0c20.9,0,37.2,5.3,48.9,16c11.7,10.7,17.5,25.4,17.5,44.3
		c0,12.6-3.7,24.4-11,35.2c-7.3,10.8-16.6,20.7-27.7,29.6c-5.7,5-9.2,9.7-10.7,14.2c-1.4,4.5-2.2,11.1-2.2,19.7H228.9z M265.8,220.6
		h-37v-34.8h37V220.6z"/>
</g>
</svg>
