<?xml version="1.0" encoding="utf-8"?>
<!-- Generator: Adobe Illustrator 19.0.0, SVG Export Plug-In . SVG Version: 6.00 Build 0)  -->
<svg version="1.1" id="Layer_1" xmlns="http://www.w3.org/2000/svg" xmlns:xlink="http://www.w3.org/1999/xlink" x="0px" y="0px"
	 viewBox="-787 415.8 167 86.9" style="enable-background:new -787 415.8 167 86.9;" xml:space="preserve">
<style type="text/css">
	.searchempty-st0{fill:inherit;}
	.searchempty-st1{fill:inherit;stroke:#D44735;stroke-width:2.5;}
	.searchempty-st2{fill:inherit;}
	.searchempty-st3{fill:none;stroke:#D44735;stroke-width:2.5;stroke-linecap:round;}
	.searchempty-st4{fill:none;stroke:inherit;stroke-width:2.5;stroke-linecap:round;}
	.searchempty-st5{fill:none;stroke:#D44735;stroke-width:2.5;}
	.searchempty-st6{fill:inherit;stroke:#D44735;stroke-width:2.5;}
	.searchempty-st7{fill:none;stroke:inherit;stroke-width:2.5;stroke-linecap:round;}
	.searchempty-st8{fill:inherit;}
	.searchempty-st9{fill:none;stroke:#D3716A;stroke-width:2.5;stroke-linecap:round;}
	.searchempty-st10{fill:none;stroke:#D3716A;stroke-width:2.5;stroke-linecap:round;stroke-linejoin:round;}
</style>
<path class="searchempty-st0" d="M-627,416c3.9,0,7,3.1,7,7s-3.1,7-7,7h-40c3.9,0,7,3.1,7,7s-3.1,7-7,7h22c3.9,0,7,3.1,7,7s-3.1,7-7,7h-10.2
	c-4.9,0-8.8,3.1-8.8,7c0,2.6,2,4.9,6,7c3.9,0,7,3.1,7,7s-3.1,7-7,7h-83c-3.9,0-7-3.1-7-7s3.1-7,7-7h-39c-3.9,0-7-3.1-7-7s3.1-7,7-7
	h40c3.9,0,7-3.1,7-7s-3.1-7-7-7h-25c-3.9,0-7-3.1-7-7s3.1-7,7-7h40c-3.9,0-7-3.1-7-7s3.1-7,7-7H-627z M-627,444c3.9,0,7,3.1,7,7
	s-3.1,7-7,7s-7-3.1-7-7S-630.9,444-627,444z"/>
<path class="searchempty-st1" d="M-713.5,484c18.5,0,33.5-15,33.5-33.5c0-18.5-15-33.5-33.5-33.5s-33.5,15-33.5,33.5C-747,469-732,484-713.5,484
	z"/>
<path class="searchempty-st2" d="M-718.9,476.5c1.8,0.3,3.5,0.5,5.4,0.5c14.6,0,26.5-11.9,26.5-26.5c0-14.6-11.9-26.5-26.5-26.5
	c-3.8,0-7.3,0.8-10.6,2.2c-5.6,2.5-10.2,6.8-13,12.2c-1.9,3.6-2.9,7.7-2.9,12.1c0,3.9,0.9,7.7,2.4,11c1.1,2.4,2.5,4.6,4.3,6.6"/>
<path class="searchempty-st3" d="M-718.9,476.5c1.8,0.3,3.5,0.5,5.4,0.5c14.6,0,26.5-11.9,26.5-26.5c0-14.6-11.9-26.5-26.5-26.5
	c-3.8,0-7.3,0.8-10.6,2.2c-5.6,2.5-10.2,6.8-13,12.2c-1.9,3.6-2.9,7.7-2.9,12.1c0,3.9,0.9,7.7,2.4,11c1.1,2.4,2.5,4.6,4.3,6.6"/>
<path class="searchempty-st4" d="M-730.2,471.1c2.1,1.7,4.6,3.2,7.2,4.2"/>
<path class="searchempty-st5" d="M-686,477l6,6"/>
<path class="searchempty-st6" d="M-681,482c-1.9,1.9-1.9,5,0,6.9l11.1,11.1c1.9,1.9,5,1.9,6.9,0c1.9-1.9,1.9-5,0-6.9l-11.1-11.1
	C-676,480.1-679.1,480.1-681,482z"/>
<path class="searchempty-st7" d="M-676,484l11,11"/>
<path class="searchempty-st8" d="M-720,439c0,11.6,9.4,21,21,21c2.3,0,4.5-0.4,6.5-1c-3.4,8.3-11.5,14.2-21,14.2c-12.5,0-22.7-10.1-22.7-22.7
	c0-11.3,8.3-20.7,19.2-22.4C-718.9,431.3-720,435-720,439z"/>
<path class="searchempty-st9" d="M-713,432c-1.3,0-2.5,0.1-3.7,0.4 M-720.4,433.5c-6.8,2.9-11.6,9.6-11.6,17.5"/>
<path class="searchempty-st10" d="M-659.8,450.8h-8.2 M-653.5,443h-17.2H-653.5z M-646.5,443h-2.2H-646.5z"/>
<path class="searchempty-st10" d="M-749.8,472.8h-8.2 M-754.5,464h-17.2H-754.5z M-777.5,464h-4.2H-777.5z"/>
</svg>
