<?xml version="1.0" encoding="utf-8"?>
<!-- Generator: Adobe Illustrator 19.0.0, SVG Export Plug-In . SVG Version: 6.00 Build 0)  -->
<svg version="1.1" id="Layer_1" xmlns="http://www.w3.org/2000/svg" xmlns:xlink="http://www.w3.org/1999/xlink" x="0px" y="0px"
	 viewBox="-161.3 238.7 726.7 726.7" style="enable-background:new -161.3 238.7 726.7 726.7;" xml:space="preserve">
<style type="text/css">
	.sum-st0{fill:none;stroke:currentColor;stroke-width:60;stroke-linecap:round;stroke-linejoin:round;}
	.sum-st1{fill:#D44735;}
</style>
<path class="sum-st0" d="M-131.3,268.7v666.7h666.7"/>
<g>
	<path class="sum-st1" d="M407.2,412.2v-48.1H94.8l183.8,197.7c11.5,12.4,11.4,31.7-0.4,43.8l-181.7,189h310.7v-29
		c0-17.6,14.3-31.9,31.9-31.9c17.6,0,31.9,14.3,31.9,31.9v60.9c0,17.6-14.3,31.9-31.9,31.9H21.6c-12.8,0-24.3-7.6-29.4-19.4
		c-5-11.8-2.5-25.4,6.4-34.6l212.8-221.3L-1.8,353.9c-8.6-9.3-10.9-22.8-5.9-34.5c5.1-11.6,16.6-19.2,29.2-19.2h417.5
		c17.6,0,31.9,14.3,31.9,31.9v80c0,17.6-14.3,31.9-31.9,31.9C421.5,444.1,407.2,429.8,407.2,412.2z"/>
</g>
</svg>
